# xmcd
#
# Track frame offsets:
#	150
#	15169
#	28212
#	41027
#	53695
#	69666
#	83941
#	98478
#	113169
#	128057
#	142938
#	158196
#
# Disc length: 2294 seconds
#
# Revision: 0
# Processed by: cddbd v1.5.2PL0 Copyright (c) Steve Scherf et al.
# Submitted via: EZCDAudioConverter 2.0.5.1
#
DISCID=9208f40c
DTITLE=Allison Paige - You Knew Me When
DYEAR=1997
DGENRE=Country
TTITLE0=Don't Let The Fire Die
TTITLE1=If Your Mama Didn't Raise No Fool
TTITLE2=You Shouldn't Have
TTITLE3=That's The Story Of My Life
TTITLE4=You'll Never Cross My Heart
TTITLE5=Next Time
TTITLE6=She's Got You Right Where I Want You
TTITLE7=Showdown
TTITLE8=Can't Shake This Ache
TTITLE9=You Don't Know Love
TTITLE10=One Life Stand
TTITLE11=Leavin's Not The Only Way To Go
EXTD=
EXTT0=
EXTT1=
EXTT2=
EXTT3=
EXTT4=
EXTT5=
EXTT6=
EXTT7=
EXTT8=
EXTT9=
EXTT10=
EXTT11=
PLAYORDER=
